<?xml version="1.0" ?><!DOCTYPE svg  PUBLIC '-//W3C//DTD SVG 1.1//EN'  'http://www.w3.org/Graphics/SVG/1.1/DTD/svg11.dtd'><svg enable-background="new 0 0 512 512" height="512px" id="Layer_1" version="1.1" viewBox="0 0 512 512" width="512px" xml:space="preserve" xmlns="http://www.w3.org/2000/svg" xmlns:xlink="http://www.w3.org/1999/xlink"><g><g opacity="0.12"><g><rect fill="none" height="127.055" width="407.445" x="65.856" y="384.111"/><path d="M65.856,447.625c0,35.107,91.2,63.541,203.729,63.541c112.509,0,203.716-28.434,203.716-63.541     c0-35.08-91.207-63.514-203.716-63.514C157.056,384.111,65.856,412.545,65.856,447.625" fill="#231F20"/></g></g><path d="M421.305,381.078c0,0,16.01,18.846,4.715,47.109c-11.309,28.277-73.509,15.09-75.387,0   c0,0-49.954,8.484-36.762-33.924c0,0,5.661-9.416,12.247-13.186H421.305z" fill="#989897"/><path d="M291.255,423.486c0,0,26.386,26.371,0,53.703c-26.385,27.33-92.355,11.309-86.708-11.309   c0,0-70.672,13.199-58.418-32.979c12.24-46.178,26.503-34.869,26.503-34.869L291.255,423.486z" fill="#989897"/><path d="M414.711,309.447c0,0-7.552,36.748,6.587,71.617c0,0-12.247,32.992-58.425,11.32   c0,0-34.863,9.418-36.748-11.32v-26.451C326.125,354.613,379.842,305.678,414.711,309.447" fill="#F3CBA2"/><path d="M293.14,362.217c0,0-6.6,28.277-1.885,61.27c0,0-44.3,37.68-75.399,0c0,0-46.27,8.982-48.096-26.596   c0,0,17.954-22.42,24.547-53.52L293.14,362.217z" fill="#F3CBA2"/><path d="M421.305,292.49c0,0,25.453,35.803,44.286,0c0,0,40.523,1.879,20.738-28.275   c0,0,30.687-14.132,5.443-30.155c0,0,4.919-35.815-19.582-14.132c0,0,4.715-27.331-17.907-28.277L421.305,292.49z" fill="#929496"/><path d="M230.446,359.395c0,0,19.347,49.947,52.325,5.66c0,0,46.178,39.203,53.723-10.547   c0,0,55.602,18.072,55.602-35.631c0,0,54.648,8.484,43.34-45.246c0,0,50.894-14.119,20.738-55.594c0,0,33.918-29.209-1.891-45.232   c0,0,32.046-44.287-14.132-52.771c0,0,32.979-61.255-41.463-55.595c0,0-9.528-49.001-48.108-25.439   c0,0-11.263-42.415-52.731-12.267c0,0-38.686-55.594-67.402-2.824c0,0-59.823-22.609-49.448,34.87c0,0-68.794-14.132-46.178,55.594   l46.178,213.92C180.999,328.293,187.539,379.186,230.446,359.395" fill="#171516"/><path d="M394.834,185.176C395.556,226.705,344,230.284,344,230.284s10.021,5.49,8.589,29.361l0.145,19.096   c0,0,0.099,6.678,4.15,7.158c0,0-26.727,12.41-63.487,0h-0.112c4.059-0.48,4.15-7.158,4.15-7.158l0.145-19.096   c-27.252,9.547-37.51-9.548-38.619-13.692c-1.116-4.138-6.048-11.138-9.87-13.521c-3.815-2.384-8.911-6.843-1.59-7.802   c7.322-0.951,10.021,1.596,21.165,14.322c11.138,12.727,29.702,5.818,29.702,5.818l0,0c2.246-11.426,7.801-14.486,7.801-14.486   s-51.549-3.579-50.84-45.107c0,0-2.62-25.059,11.459-37.47c0,0-4.295-15.281-0.952-26.261c0,0,1.313-6.324,9.069-3.461   c0,0,18.019,5.851,22.675,11.577l-0.125,0.479c27.686-9.548,55.135-0.479,55.135-0.479c4.656-5.726,22.676-11.577,22.676-11.577   c7.755-2.863,9.068,3.461,9.068,3.461c3.343,10.979-0.952,26.261-0.952,26.261C397.46,160.118,394.834,185.176,394.834,185.176z    M285.851,249.459c-1.583,0-2.863,0.709-2.863,1.589c0,0.873,1.28,1.589,2.863,1.589s2.863-0.716,2.863-1.589   C288.714,250.168,287.434,249.459,285.851,249.459z M294.309,248.546c-1.55,0.321-2.659,1.28-2.482,2.141   c0.178,0.86,1.583,1.287,3.133,0.972c1.543-0.321,2.659-1.287,2.476-2.141C297.258,248.658,295.858,248.224,294.309,248.546z    M277.149,248.487c-1.497-0.499-2.941-0.229-3.218,0.598c-0.282,0.828,0.709,1.911,2.207,2.417   c1.497,0.505,2.941,0.243,3.225-0.591C279.639,250.077,278.653,248.993,277.149,248.487z M270.301,244.291   c-1.234-0.978-2.686-1.215-3.231-0.531c-0.545,0.689,0.021,2.042,1.255,3.027c1.24,0.984,2.686,1.221,3.23,0.538   C272.1,246.635,271.542,245.276,270.301,244.291z M265.034,238.519c-0.874-1.084-2.069-1.569-2.666-1.084   c-0.604,0.486-0.381,1.76,0.492,2.837c0.873,1.09,2.068,1.569,2.666,1.09C266.131,240.876,265.907,239.602,265.034,238.519z    M260.201,232.694c-0.874-1.084-2.068-1.569-2.666-1.084c-0.604,0.486-0.381,1.761,0.492,2.838   c0.873,1.083,2.068,1.569,2.666,1.083C261.297,235.051,261.074,233.778,260.201,232.694z M255.499,228.005   c-0.834-0.729-1.832-0.952-2.239-0.493c-0.407,0.46-0.059,1.426,0.769,2.161s1.832,0.952,2.239,0.492   C256.674,229.706,256.326,228.741,255.499,228.005z" fill="#FFFFFF"/><path d="M188.537,157.727c0,0,33.924-60.31,94.24-39.578c0,0,15.071,65.031-64.099,81.993   c0,0,66.923,144.188-41.449,160.198c0,0-38.64,60.309-84.817,20.738c0,0-45.232,37.68-71.617-37.707   c-26.386-75.387,1.878-87.627,29.209-133.805c0,0-49.001-14.329-35.815-95.744c0,0,51.838-3.205,75.4,25.059L188.537,157.727z" fill="#F3CBA2"/><path d="M61.312,327.361   c0,0,26.937,39.52,68.938,0" fill="none" stroke="#C8A988" stroke-linecap="round" stroke-miterlimit="10" stroke-width="4.7474"/><path d="M158.382,327.361   c0,0,26.385-1.891,26.385-29.223" fill="none" stroke="#C8A988" stroke-linecap="round" stroke-miterlimit="10" stroke-width="4.7474"/><path d="M89.588,344.92   c0,0-8.103,28.527,2.824,36.145" fill="none" stroke="#C8A988" stroke-linecap="round" stroke-miterlimit="10" stroke-width="4.7474"/><path d="M178.582,317.104   c0,0,12.03,27.477-1.353,43.236" fill="none" stroke="#C8A988" stroke-linecap="round" stroke-miterlimit="10" stroke-width="4.7474"/><path d="M70.742,232.182c0,9.075-4.216,16.443-9.43,16.443c-5.201,0-9.417-7.368-9.417-16.443   c0-9.089,4.216-16.444,9.417-16.444C66.526,215.738,70.742,223.093,70.742,232.182" fill="#434445"/><path d="M167.812,232.182c0,9.075-4.216,16.443-9.43,16.443c-5.201,0-9.43-7.368-9.43-16.443   c0-9.089,4.229-16.444,9.43-16.444C163.597,215.738,167.812,223.093,167.812,232.182" fill="#434445"/><path d="M201.724,192.275c0,0-10.835-64.703,67.854-59.049C269.578,133.227,270.518,182.997,201.724,192.275" fill="#F6B5CE"/><path d="M32.103,136.53c0,0,47.452-14.604,54.597,47.589C86.699,184.119,36.345,202.487,32.103,136.53" fill="#F6B5CE"/><path d="M95.788,113.704c0,0,15.918-39.375,48.91-6.869c0,0,46.664-31.087,45.718,15.557   c0,0,51.011,14.789,6.134,42.415c0,0,15.918,48.056-28.789,31.087c0,0-14.565,37.417-45.193,3.638c0,0-36.419,30.286-35.868-19.182   c0,0-44.72-2.909-11.965-30.424C74.734,149.926,44.974,106.434,95.788,113.704" fill="#929496"/></g></svg>